<?xml version="1.0"?>
<svg xmlns="http://www.w3.org/2000/svg" xmlns:xlink="http://www.w3.org/1999/xlink" xmlns:svgjs="http://svgjs.com/svgjs" version="1.1" width="512" height="512" x="0" y="0" viewBox="0 0 512 512" style="enable-background:new 0 0 512 512" xml:space="preserve" class=""><g><g xmlns="http://www.w3.org/2000/svg"><g><path d="m328.128 91.122c18.211-20.588 44.827-33.569 74.474-33.569 54.896 0 99.398 44.505 99.398 99.404s-44.502 99.404-99.398 99.404c-21.431 0-41.277-6.783-57.51-18.318" fill="#faf7f5" data-original="#faf7f5" style="" class=""/><path d="m344.064 175.897h37.6v31.931h37.877v-31.931h31.929v-37.879h-31.929v-31.932h-37.877v31.932h-39.132" fill="#ff7d97" data-original="#ff7d97" style=""/><g><g><g><path clip-rule="evenodd" d="m327.913 391.564c27.446-5.6 48.091-29.812 48.091-58.832 0-12.464-3.809-24.042-10.329-33.638-14.503-21.344-22.84-46.249-22.84-72.03v-67.671c0-82.508-67.082-149.393-149.833-149.393-82.75 0-149.833 66.885-149.833 149.392v67.671c0 25.781-8.337 50.686-22.84 72.03-6.52 9.597-10.329 21.174-10.329 33.639 0 28.004 19.225 51.531 45.233 58.176" fill="#ffe6b4" fill-rule="evenodd" data-original="#ffe6b4" style="" class=""/><path d="m330.609 201.457c-1.339-12.16-11.287-21.873-23.506-22.979-3.519-.318-6.909.061-10.049 1.015 0-19.116-15.514-34.612-34.651-34.612h-6.29l-26.126-32.396-30.272 32.396h-76.113c-19.137 0-34.651 15.496-34.651 34.612-3.141-.954-6.533-1.334-10.054-1.014-12.219 1.109-22.166 10.824-23.502 22.985-1.724 15.696 10.554 28.975 25.942 28.975 2.649 0 5.205-.394 7.614-1.125v33.648c0 40.904 77.588 49.772 77.588 49.772v43.383h52.927v-43.383s77.588-8.868 77.588-49.772v-33.648c2.409.731 4.965 1.125 7.614 1.125 15.39.001 27.669-13.283 25.941-28.982z" fill="#ffea40" data-original="#ffdcd5" style="" class=""/></g></g></g><path d="m147.796 502h-87.947v-111.97c0-18.729 15.228-33.913 34.013-33.913h198.282c18.785 0 34.013 15.183 34.013 33.913v111.97h-87.947" fill="#ccf5fc" data-original="#ccf5fc" style="" class=""/><ellipse cx="263.905" cy="438.866" fill="#99ebfa" rx="26.091" ry="26.062" data-original="#99ebfa" style="" class=""/><path d="m193.002 416.709-38.572-60.591h77.145z" fill="#faf7f5" data-original="#faf7f5" style="" class=""/></g><g><path d="m402.603 47.554c-27.28 0-53.462 10.214-73.486 28.362-28.173-45.518-78.651-75.916-136.115-75.916-88.132 0-159.833 71.503-159.833 159.392v67.671c0 23.12-7.3 46.085-21.111 66.41-7.888 11.609-12.058 25.185-12.058 39.259 0 31.011 20.348 58.164 49.849 67.055v102.213c0 5.522 4.478 10 10 10h87.947c5.522 0 10-4.478 10-10s-4.478-10-10-10h-77.947v-101.97c0-13.186 10.772-23.913 24.013-23.913h15.935v36.372c-14.043 4.286-24.286 17.356-24.286 32.771v7.428c0 5.522 4.478 10 10 10s10-4.478 10-10v-7.428c0-7.861 6.409-14.258 14.286-14.258s14.285 6.396 14.285 14.258v7.428c0 5.522 4.478 10 10 10s10-4.478 10-10v-7.428c0-15.415-10.243-28.485-24.285-32.771v-36.372h19.146l35.625 55.962c1.836 2.884 5.018 4.63 8.436 4.63s6.6-1.746 8.436-4.63l35.625-55.962h16.843v38.095c-15.052 4.343-26.092 18.235-26.092 34.654 0 19.885 16.19 36.062 36.092 36.062 19.9 0 36.091-16.177 36.091-36.062 0-16.419-11.039-30.311-26.091-34.654v-38.095h18.238c13.24 0 24.013 10.728 24.013 23.913v101.97h-77.947c-5.522 0-10 4.478-10 10s4.478 10 10 10h87.947c5.522 0 10-4.478 10-10v-102.215c29.236-8.839 49.849-36.079 49.849-67.054 0-14.072-4.17-27.648-12.059-39.259-7.929-11.67-13.712-24.209-17.2-37.148 14.269 6.604 29.827 10.037 45.856 10.037 60.322 0 109.397-49.078 109.397-109.404-.002-60.325-49.077-109.403-109.399-109.403zm-122.607 391.312c0 8.856-7.219 16.062-16.091 16.062-8.873 0-16.092-7.205-16.092-16.062s7.219-16.063 16.092-16.063c8.872.001 16.091 7.207 16.091 16.063zm139.545-290.848h21.929v17.88h-21.929c-5.522 0-10 4.478-10 10v21.931h-17.878v-21.931c0-5.522-4.478-10-10-10h-28.828v-6.506c0-3.824-.136-7.617-.403-11.374h29.231c5.522 0 10-4.478 10-10v-21.931h17.878v21.931c0 5.522 4.478 10 10 10zm-226.538-128.018c77.104 0 139.832 62.531 139.832 139.392v22.461c-5.974-7.417-14.83-12.428-24.831-13.333-.786-.071-1.57-.117-2.353-.139-4.954-19.241-22.466-33.499-43.249-33.499h-1.507l-23.124-28.674c-1.818-2.255-4.525-3.61-7.42-3.716-2.916-.12-5.693 1.05-7.671 3.166l-27.308 29.224h-71.771c-20.783 0-38.295 14.259-43.249 33.499-.784.021-1.571.068-2.359.14-9.999.907-18.852 5.917-24.824 13.332v-22.461c0-76.861 62.729-139.392 139.834-139.392zm16.463 292.734v33.383h-32.927v-33.383c0-5.078-3.813-9.351-8.857-9.935-.688-.079-68.731-8.825-68.731-39.837v-33.648c0-3.167-1.5-6.146-4.044-8.033-2.544-1.886-5.831-2.457-8.862-1.535-1.515.46-3.099.693-4.707.693-4.584 0-8.966-1.955-12.021-5.365-3.077-3.433-4.49-7.878-3.98-12.519.81-7.373 7.027-13.442 14.464-14.117 2.143-.196 4.244.016 6.246.624 3.032.92 6.318.349 8.86-1.537 2.544-1.886 4.044-4.865 4.044-8.032 0-13.57 11.059-24.611 24.651-24.611h76.113c2.77 0 5.415-1.148 7.307-3.173l22.41-23.982 18.897 23.433c1.898 2.354 4.76 3.723 7.784 3.723h6.289c13.593 0 24.651 11.041 24.651 24.611 0 3.167 1.5 6.146 4.044 8.032 2.542 1.886 5.826 2.457 8.86 1.537 2.002-.608 4.1-.817 6.243-.625 7.436.674 13.655 6.741 14.468 14.114.511 4.641-.902 9.088-3.979 12.521-3.056 3.41-7.438 5.366-12.022 5.366-1.608 0-3.193-.233-4.709-.693-3.031-.923-6.317-.35-8.861 1.535-2.544 1.887-4.044 4.866-4.044 8.033v33.648c0 31.012-68.043 39.758-68.724 39.836-5.05.578-8.863 4.852-8.863 9.936zm-158.235 66.356c-18.682-7.578-31.231-25.78-31.231-46.359 0-10.049 2.974-19.737 8.601-28.019 16.072-23.654 24.568-50.505 24.568-77.65v-.117c.403.502.821.995 1.253 1.477 6.312 7.042 15.145 11.315 24.528 11.938v22.603c0 14.815 7.853 35.443 45.26 49.579 12.271 4.638 24.433 7.331 32.329 8.76v24.815h-62.678c-20.484 0-37.745 14.035-42.63 32.973zm141.771 18.998-20.352-31.971h40.703zm173.003-65.357c0 20.542-12.696 38.788-31.233 46.351-4.888-18.934-22.146-32.965-42.628-32.965h-62.678v-24.815c7.896-1.429 20.058-4.122 32.329-8.76 37.407-14.136 45.259-34.764 45.259-49.579v-22.603c9.385-.622 18.221-4.896 24.532-11.941.431-.481.847-.972 1.249-1.473v.116c0 27.144 8.496 53.994 24.568 77.65 5.627 8.282 8.602 17.972 8.602 28.019zm36.598-86.37c-17.845 0-34.97-5.202-49.686-15.067-.054-1.409-.082-2.82-.082-4.231v-41.165h18.828v21.931c0 5.522 4.478 10 10 10h37.878c5.522 0 10-4.478 10-10v-21.931h21.929c5.522 0 10-4.478 10-10v-37.88c0-5.522-4.478-10-10-10h-21.929v-21.931c0-5.522-4.478-10-10-10h-37.878c-5.522 0-10 4.478-10 10v21.931h-21.938c-2.365-11.77-6.035-23.075-10.851-33.76 16.763-17.027 39.725-26.704 63.728-26.704 49.294 0 89.397 40.106 89.397 89.403.001 49.298-40.103 89.404-89.396 89.404z" fill="#000000" data-original="#000000" style="" class=""/><path d="m152.577 193.007c-5.522 0-10 4.478-10 10v10.318c0 5.522 4.478 10 10 10s10-4.478 10-10v-10.318c0-5.523-4.477-10-10-10z" fill="#000000" data-original="#000000" style="" class=""/><path d="m233.428 193.007c-5.522 0-10 4.478-10 10v10.318c0 5.522 4.478 10 10 10s10-4.478 10-10v-10.318c0-5.523-4.478-10-10-10z" fill="#000000" data-original="#000000" style="" class=""/><path d="m202.869 249.755c-5.44 5.426-14.292 5.427-19.732 0-3.91-3.9-10.242-3.893-14.143.018s-3.893 10.242.018 14.143c6.615 6.598 15.301 9.896 23.99 9.896 8.688 0 17.377-3.299 23.99-9.896 3.911-3.9 3.919-10.231.019-14.142-3.9-3.912-10.233-3.919-14.142-.019z" fill="#000000" data-original="#000000" style="" class=""/><path d="m202.42 498.17c-1.625-3.905-5.663-6.428-9.889-6.138-4.058.279-7.615 3.03-8.861 6.909-1.281 3.988.112 8.435 3.428 10.992 3.351 2.584 8.126 2.735 11.642.386 3.934-2.627 5.47-7.787 3.68-12.149z" fill="#000000" data-original="#000000" style="" class=""/></g></g></g></svg>
