<svg id="Capa_1" enable-background="new 0 0 512 512" height="512" viewBox="0 0 512 512" width="512" xmlns="http://www.w3.org/2000/svg"><g><g><g><path d="m210.794 211.766h-200.794v-63.505h492v63.505h-200.793" fill="#ccf5fc"/><path d="m168.223 407.299 236.868-195.533h-67.712l-203.774 168.214" fill="#ccf5fc"/><g fill="#99ebfa"><path d="m256 278.944-81.379-67.178h-67.712l115.235 95.126z"/><path d="m379.129 380.586-89.273-73.694-33.856 27.948 87.34 72.099"/></g></g><path d="m482.234 148.261h-461.191v-34.535c0-11.51 9.331-20.84 20.84-20.84h419.511c11.51 0 20.84 9.331 20.84 20.84z" fill="#ffe6b4"/><g fill="#faf7f5"><path d="m183.155 92.886h-138.681v-23.947c0-11.51 9.331-20.84 20.84-20.84h97c11.51 0 20.84 9.331 20.84 20.84v23.947z"/><circle cx="128.756" cy="422.503" r="41.398"/><circle cx="384.739" cy="422.503" r="41.398"/></g></g><g><path d="m502 138.261h-9.766v-24.534c0-17.006-13.835-30.841-30.84-30.841h-16.508v-8.333c0-17.974-14.623-32.596-32.596-32.596h-103.404c-17.973 0-32.596 14.622-32.596 32.596v8.333h-83.135v-13.947c0-17.006-13.835-30.841-30.84-30.841h-97c-17.005 0-30.84 13.835-30.84 30.841v14.846c-13.439 3.326-23.432 15.488-23.432 29.941v24.534h-1.043c-5.523 0-10 4.478-10 10v63.505c0 5.522 4.477 10 10 10h93.314l103.122 85.126-77.788 64.213c-28.291.059-51.289 23.094-51.289 51.398 0 28.341 23.057 51.398 51.398 51.398s51.398-23.058 51.398-51.398c0-3.807-.416-7.518-1.205-11.092l77.05-63.603 78.325 64.656c-.646 3.248-.984 6.605-.984 10.04 0 28.341 23.057 51.398 51.398 51.398s51.398-23.058 51.398-51.398-23.057-51.398-51.398-51.398c-.457 0-.912.006-1.365.018l-77.809-64.231 103.122-85.126h93.313c5.523 0 10-4.478 10-10v-63.505c0-5.523-4.477-10-10-10zm-40.606-35.375c5.978 0 10.84 4.863 10.84 10.841v24.534h-27.348v-35.375zm-165.104 0h128.596v35.375h-128.596zm0-28.333c0-6.945 5.65-12.596 12.596-12.596h103.404c6.945 0 12.596 5.65 12.596 12.596v8.333h-128.596zm-241.816-5.614c0-5.978 4.863-10.841 10.84-10.841h97c5.978 0 10.84 4.863 10.84 10.841v13.946h-118.68zm-23.432 44.788c0-5.978 4.863-10.841 10.84-10.841h234.408v35.375h-245.248zm103.689 108.04h36.296l69.265 57.177-18.148 14.981zm-5.975 232.134c-17.313 0-31.398-14.085-31.398-31.398s14.085-31.398 31.398-31.398 31.398 14.085 31.398 31.398-14.085 31.398-31.398 31.398zm287.381-31.398c0 17.313-14.085 31.398-31.398 31.398s-31.398-14.085-31.398-31.398 14.085-31.398 31.398-31.398 31.398 14.084 31.398 31.398zm-56.356-44.922c-6.892 3.844-12.813 9.229-17.294 15.685l-70.778-58.427 18.148-14.981zm-189.324 14.906c-4.61-6.386-10.649-11.676-17.644-15.397l188.159-155.324h36.296zm321.543-190.721h-190.793c-5.523 0-10 4.478-10 10s4.477 10 10 10h8.351l-53.558 44.21-53.557-44.211h8.351c5.523 0 10-4.478 10-10s-4.477-10-10-10h-190.794v-43.505h472z"/><path d="m265.42 207.939c-1.613-3.867-5.576-6.387-9.771-6.16-4.162.225-7.817 3.096-9.029 7.08-1.214 3.99.251 8.46 3.61 10.938 3.275 2.415 7.767 2.598 11.227.458 4.104-2.537 5.819-7.856 3.963-12.316z"/></g></g></svg>