<svg id="Capa_1" enable-background="new 0 0 512 512" height="512" viewBox="0 0 512 512" width="512" xmlns="http://www.w3.org/2000/svg"><g><g><path d="m449.298 482.046h-61.662v-358.473h61.662" fill="#faf7f5"/><g><path d="m41.88 123.573c-17.607 0-31.88 14.3-31.88 31.94v294.594c0 17.64 14.273 31.94 31.88 31.94h23.789v-358.474z" fill="#ff9eb1"/><path d="m127.331 123.573h260.305v358.473h-260.305z" fill="#ccf5fc"/><path d="m449.298 482.046h20.822c17.607 0 31.88-14.3 31.88-31.94v-294.593c0-17.64-14.273-31.94-31.88-31.94h-20.822" fill="#ff9eb1"/></g><path d="m134.364 64.983v58.59h48.138v-45.28h146.997v45.28h48.137v-58.59c0-19.346-15.618-35.029-34.883-35.029h-173.506c-19.265 0-34.883 15.683-34.883 35.029z" fill="#99ebfa"/><path d="m327.807 275.49h-45.073v-45.16h-53.468v45.16h-45.073v53.572h45.073v45.16h53.468v-45.16h45.073z" fill="#ff7d97"/><path d="m65.669 123.573h61.662v358.473h-61.662z" fill="#faf7f5"/></g><g><path d="m470.12 113.572h-20.822c-.026 0-.051.001-.076.001h-61.509c-.025 0-.051-.001-.076-.001v-48.59c0-24.829-20.135-45.028-44.883-45.028h-173.507c-24.749 0-44.883 20.199-44.883 45.028v48.591h-58.618c-.026 0-.051-.001-.076-.001h-23.79c-23.093 0-41.88 18.814-41.88 41.94v294.594c0 23.126 18.787 41.939 41.88 41.939h428.24c23.093 0 41.88-18.813 41.88-41.939v-294.593c0-23.126-18.787-41.941-41.88-41.941zm-277.618 0v-25.279h126.997v25.279zm-23.255-73.618h173.506c13.721 0 24.883 11.228 24.883 25.028v48.59h-28.137v-35.279c0-5.522-4.478-10-10-10h-146.997c-5.523 0-10 4.478-10 10v35.279h-28.138v-48.59c0-13.8 11.162-25.028 24.883-25.028zm-149.247 410.152v-294.593c0-12.098 9.815-21.94 21.88-21.94h13.79v338.474h-13.79c-12.065-.001-21.88-9.843-21.88-21.941zm55.669-316.533h41.662v338.473h-41.662zm61.663 0h45.17c.026 0 .051-.001.076-.001h146.844c.025 0 .051.001.076.001h48.137v338.473h-240.303zm354.668 316.533c0 12.098-9.815 21.939-21.88 21.939h-10.822v-124.563c0-5.522-4.478-10-10-10s-10 4.478-10 10v124.563h-41.662v-338.472h41.662v123.497c0 5.522 4.478 10 10 10s10-4.478 10-10v-123.498h10.822c12.064 0 21.88 9.843 21.88 21.94z"/><path d="m327.807 265.49h-35.072v-35.16c0-5.522-4.478-10-10-10h-53.469c-5.523 0-10 4.478-10 10v35.16h-35.072c-5.523 0-10 4.478-10 10v53.572c0 5.522 4.477 10 10 10h35.072v35.159c0 5.522 4.477 10 10 10h53.469c5.522 0 10-4.478 10-10v-35.159h35.072c5.522 0 10-4.478 10-10v-53.572c0-5.522-4.478-10-10-10zm-10 53.573h-35.072c-5.522 0-10 4.478-10 10v35.159h-33.469v-35.159c0-5.522-4.477-10-10-10h-35.072v-33.573h35.072c5.523 0 10-4.478 10-10v-35.16h33.469v35.16c0 5.522 4.478 10 10 10h35.072z"/><path d="m447.34 292.649c-4.144.861-7.405 4.295-7.957 8.506s1.698 8.381 5.495 10.265c3.786 1.878 8.504 1.1 11.493-1.89 2.947-2.949 3.742-7.556 1.972-11.324-1.927-4.099-6.554-6.446-11.003-5.557z"/></g></g></svg>