<svg id="Capa_1" enable-background="new 0 0 512 512" height="512" viewBox="0 0 512 512" width="512" xmlns="http://www.w3.org/2000/svg"><g><g><path d="m478.915 298.564v-76.856c0-17.08-13.846-30.926-30.926-30.926h-20.771v45.069" fill="#fff3da"/><path d="m447.989 239.638h-289.585v-49.83h-102.106c-12.82 0-23.213 10.393-23.213 23.213v258.053c0 17.08 13.846 30.926 30.926 30.926h383.979c17.08 0 30.926-13.846 30.926-30.926v-200.51c-.001-17.08-13.847-30.926-30.927-30.926z" fill="#ffe6b4"/><path d="m158.404 189.809v49.83h268.814v-210.2c0-10.736-8.703-19.439-19.439-19.439h-303.558c-10.736 0-19.439 8.703-19.439 19.439v160.37z" fill="#faf7f5"/><path d="m318.705 106.654h-39.359v-39.359h-46.692v39.359h-39.359v46.692h39.359v39.359h46.692v-39.359h39.359z" fill="#ff7d97"/><path d="m114.517 438.516h-81.432v-130.993h253.277v130.993h-81.432" fill="#ccf5fc"/></g><g><path d="m447.989 180.782h-10.771v-151.343c0-16.233-13.206-29.439-29.439-29.439h-303.558c-16.233 0-29.439 13.206-29.439 29.439v150.37h-18.484c-18.313 0-33.213 14.899-33.213 33.212v258.053c0 22.566 18.359 40.926 40.926 40.926h383.979c22.566 0 40.926-18.359 40.926-40.926v-249.366c-.001-22.566-18.36-40.926-40.927-40.926zm0 20c11.538 0 20.926 9.387 20.926 20.926v13.696c-6.127-3.66-13.285-5.766-20.926-5.766h-10.771v-28.856zm-353.207-171.343c0-5.205 4.234-9.439 9.438-9.439h303.559c5.204 0 9.438 4.234 9.438 9.439v200.199h-248.813v-39.83c0-5.523-4.478-10-10-10h-63.622zm374.133 441.635c0 11.539-9.388 20.926-20.926 20.926h-383.978c-11.538 0-20.926-9.387-20.926-20.926v-22.558h71.433c5.522 0 10-4.477 10-10s-4.478-10-10-10h-71.433v-110.993h233.276v110.993h-71.431c-5.522 0-10 4.477-10 10s4.478 10 10 10h81.432c5.522 0 10-4.477 10-10v-130.993c0-5.523-4.478-10-10-10h-243.277v-84.502c0-7.285 5.928-13.212 13.213-13.212h92.106v39.83c0 5.523 4.478 10 10 10h289.585c11.538 0 20.926 9.387 20.926 20.926z"/><path d="m193.295 163.346h29.359v29.359c0 5.523 4.478 10 10 10h46.691c5.522 0 10-4.477 10-10v-29.359h29.359c5.522 0 10-4.477 10-10v-46.691c0-5.523-4.478-10-10-10h-29.359v-29.36c0-5.523-4.478-10-10-10h-46.691c-5.522 0-10 4.477-10 10v29.359h-29.359c-5.522 0-10 4.477-10 10v46.691c0 5.524 4.477 10.001 10 10.001zm10-46.692h29.359c5.522 0 10-4.477 10-10v-29.359h26.691v29.359c0 5.523 4.478 10 10 10h29.359v26.691h-29.359c-5.522 0-10 4.477-10 10v29.359h-26.691v-29.359c0-5.523-4.478-10-10-10h-29.359z"/><path d="m169.14 434.69c-1.559-3.743-5.29-6.199-9.344-6.168-4.198.032-7.999 2.817-9.355 6.778-1.368 3.997.021 8.59 3.383 11.151 3.309 2.521 7.922 2.731 11.44.51 4.051-2.56 5.717-7.85 3.876-12.271z"/><path d="m235.326 395.615c0-5.523-4.478-10-10-10h-131.206c-5.522 0-10 4.477-10 10s4.478 10 10 10h131.206c5.523 0 10-4.477 10-10z"/><path d="m114.12 360.424h91.206c5.522 0 10-4.477 10-10s-4.478-10-10-10h-91.206c-5.522 0-10 4.477-10 10s4.478 10 10 10z"/></g></g></svg>