<svg id="Capa_1" enable-background="new 0 0 512 512" height="512" viewBox="0 0 512 512" width="512" xmlns="http://www.w3.org/2000/svg"><g><g><g><path d="m417.47 502h-322.94c-15.806 0-28.619-12.813-28.619-28.619v-390.081c0-15.806 12.813-28.619 28.619-28.619h322.94c15.806 0 28.619 12.813 28.619 28.619v390.081c0 15.806-12.813 28.619-28.619 28.619z" fill="#99ebfa"/><path d="m305.941 54.681c-2.675-25.117-23.931-44.681-49.757-44.681s-47.082 19.564-49.758 44.681z" fill="#ffe6b4"/><path d="m343.128 98.681h58.961v359.319h-292.178v-359.319h59.259" fill="#faf7f5"/><path d="m299.426 54.681v37.587h-86.851v-37.587h-40.378v55.066c0 12.445 10.089 22.534 22.534 22.534h122.539c12.445 0 22.534-10.089 22.534-22.534v-55.066z" fill="#ffe6b4"/></g><path d="m294.097 202.41c-22.744 0-32.949 12.715-36.964 20.184-.504.938-1.873.937-2.376-.002-4.001-7.469-14.15-20.182-36.892-20.182-25.907 0-48.697 17.64-48.697 49.852 0 13.035 2.663 24.201 10.055 36.663 15.063 25.396 64.684 58.319 74.877 64.806 1.127.717 2.554.719 3.683.005 10.201-6.456 59.832-39.216 75.013-64.811 7.392-12.462 10.036-23.629 10.036-36.663 0-32.212-22.827-49.852-48.735-49.852z" fill="#ff7d97"/></g><g><path d="m417.47 44.681h-103.22c-6.813-26.014-30.369-44.681-58.066-44.681-27.698 0-51.254 18.667-58.067 44.681h-103.587c-21.295 0-38.619 17.324-38.619 38.619v390.081c0 21.295 17.324 38.619 38.619 38.619h322.94c21.295 0 38.619-17.324 38.619-38.619v-390.081c0-21.295-17.324-38.619-38.619-38.619zm-222.74 97.599h122.54c17.939 0 32.534-14.595 32.534-32.534v-1.065h42.286v339.319h-272.179v-339.319h42.286v1.065c0 17.94 14.595 32.534 32.533 32.534zm27.845-77.599h66.851v17.587h-66.851zm33.609-44.681c16.604 0 30.977 10.054 37.013 24.681h-74.027c6.036-14.627 20.409-24.681 37.014-24.681zm-53.609 44.681v27.587c0 5.522 4.477 10 10 10h86.851c5.523 0 10-4.478 10-10v-27.587h20.378v45.065c0 6.911-5.623 12.534-12.534 12.534h-122.54c-6.911 0-12.534-5.623-12.534-12.534v-45.065zm233.514 408.7c0 10.267-8.353 18.619-18.619 18.619h-322.94c-10.267 0-18.619-8.353-18.619-18.619v-390.081c0-10.267 8.353-18.619 18.619-18.619h67.667v24h-52.286c-5.523 0-10 4.478-10 10v359.319c0 5.522 4.477 10 10 10h292.178c5.523 0 10-4.478 10-10v-359.319c0-5.522-4.477-10-10-10h-52.286v-24h67.667c10.267 0 18.619 8.353 18.619 18.619z"/><path d="m159.331 257.881h-3.663c-5.523 0-10 4.478-10 10s4.477 10 10 10h7.452c1.824 5.441 4.305 10.755 7.503 16.146 17.065 28.772 71.911 64.197 78.106 68.14 2.19 1.395 4.703 2.093 7.216 2.093 2.5 0 5.002-.69 7.187-2.073 6.201-3.925 61.081-39.184 78.266-68.159 1.133-1.911 2.176-3.812 3.132-5.713l11.746.068c5.5.055 10.026-4.42 10.058-9.941.032-5.523-4.419-10.026-9.942-10.059l-5.006-.029c.978-5.11 1.448-10.423 1.448-16.091 0-17.991-6.152-33.304-17.791-44.28-10.647-10.041-25.188-15.571-40.943-15.571-18.979 0-30.972 7.641-38.143 15.062-7.158-7.422-19.132-15.062-38.09-15.062-15.755 0-30.291 5.531-40.929 15.575-11.624 10.975-17.768 26.285-17.768 44.276-.002 1.91.052 3.781.161 5.618zm96.624 85.144c-20.496-13.418-56.847-40.177-68.13-59.202-1.196-2.017-2.254-3.988-3.183-5.942h26.717c2.477 0 4.866-.919 6.704-2.579l12.054-10.89 14.468 40.169c1.275 3.54 4.428 6.064 8.161 6.533.418.053.834.078 1.249.078 3.288 0 6.4-1.623 8.275-4.389l21.148-31.194 3.56 6.97c1.699 3.327 5.111 5.43 8.847 5.451l25.463.148c-13.739 18.672-46.347 42.48-65.333 54.847zm-38.09-130.615c16.607 0 24.435 8.104 28.076 14.901 1.975 3.688 5.805 5.982 9.996 5.985h.009c4.187 0 8.017-2.286 9.996-5.969 3.658-6.806 11.513-14.918 28.156-14.918 19.28 0 38.734 12.322 38.734 39.852 0 5.856-.589 11.023-1.895 15.972l-28.915-.168-8.487-16.614c-1.608-3.148-4.759-5.214-8.288-5.432-3.531-.229-6.911 1.442-8.895 4.369l-19.611 28.928-12.86-35.705c-1.129-3.136-3.747-5.503-6.98-6.313-3.234-.809-6.658.047-9.131 2.28l-20.259 18.302h-28.141c-.135-1.809-.201-3.676-.201-5.619-.001-27.529 19.435-39.851 38.696-39.851z"/><path d="m342 388.404h-40.793c-5.523 0-10 4.478-10 10s4.477 10 10 10h40.793c5.523 0 10-4.478 10-10s-4.477-10-10-10z"/><path d="m210.794 388.404h-40.794c-5.523 0-10 4.478-10 10s4.477 10 10 10h40.794c5.523 0 10-4.478 10-10s-4.477-10-10-10z"/><path d="m265.42 394.58c-1.581-3.798-5.434-6.309-9.556-6.176-4.129.134-7.81 2.883-9.145 6.785-1.366 3.993.015 8.584 3.374 11.147 3.302 2.52 7.931 2.729 11.445.512 4.05-2.554 5.724-7.85 3.882-12.268z"/></g></g></svg>