<svg id="Capa_1" enable-background="new 0 0 512 512" height="512" viewBox="0 0 512 512" width="512" xmlns="http://www.w3.org/2000/svg"><g><g><path d="m119.054 502h-88.857v-132.81c0-18.849 15.332-34.128 34.245-34.128h199.636c18.913 0 34.245 15.28 34.245 34.128v132.81h-88.857" fill="#ccf5fc"/><g><ellipse cx="387.048" cy="109.404" fill="#faf7f5" rx="99.398" ry="99.404"/><path d="m437.916 90.464h-31.93v-31.931h-37.877v31.931h-31.626v37.88h31.626v31.931h37.877v-31.931h31.93z" fill="#ff7d97"/></g><path clip-rule="evenodd" d="m287.65 156.957v-63.221c0-.692-.036 9.551-.036-13.922 0-69.814-80.707-44.544-80.707-44.544s-44.725-25.27-73.255-25.27h-34.282c-32.308 0-58.5 26.179-58.5 58.473v87.208" fill="#ffe6b4" fill-rule="evenodd"/><g><path d="m302.806 179.416c-1.348-12.238-11.364-22.012-23.666-23.125-3.543-.32-6.956.062-10.118 1.021 0-19.237-15.62-34.832-34.888-34.832h-31.061c-17.752 0-34.948-6.191-48.623-17.506l-5.147-4.258-10.593 7.564c-12.933 9.235-28.43 14.2-44.325 14.2-19.268 0-34.888 15.595-34.888 34.832-3.163-.96-6.578-1.342-10.122-1.021-12.303 1.116-22.318 10.893-23.662 23.131-1.735 15.796 10.626 29.16 26.119 29.16 2.667 0 5.24-.396 7.666-1.132v33.862c0 41.165 78.118 50.089 78.118 50.089v43.659h53.289v-43.659s78.118-8.924 78.118-50.089v-33.862c2.425.736 4.999 1.132 7.666 1.132 15.494.001 27.857-13.367 26.117-29.166z" fill="#ffdcd5"/><path d="m164.26 396.038-38.836-60.977h77.672z" fill="#faf7f5"/></g><ellipse cx="235.647" cy="418.336" fill="#99ebfa" rx="26.269" ry="26.228"/></g><g><g><g><g><g><path d="m387.048 0c-39.836 0-74.768 21.404-93.9 53.316-3.444-8.822-8.872-15.98-16.254-21.405-22.768-16.729-56.825-10.321-68.736-7.349-11.69-6.221-48.369-24.562-74.506-24.562h-34.282c-37.771 0-68.5 30.717-68.5 68.473v84.354c-8.233 5.823-13.942 14.986-15.098 25.504-1.127 10.26 2.156 20.529 9.007 28.174 6.357 7.095 15.263 11.393 24.719 12.003v22.806c0 14.891 7.898 35.623 45.525 49.836 12.379 4.676 24.646 7.388 32.593 8.822v25.09h-63.174c-24.396 0-44.245 19.796-44.245 44.128v132.81c0 5.522 4.478 10 10 10h88.857c5.522 0 10-4.478 10-10s-4.478-10-10-10h-78.857v-122.811c0-13.305 10.876-24.128 24.245-24.128h16.111v36.713c-14.135 4.291-24.451 17.431-24.451 32.933v7.475c0 5.522 4.478 10 10 10s10-4.478 10-10v-7.475c0-7.947 6.482-14.412 14.451-14.412s14.451 6.465 14.451 14.412v7.475c0 5.522 4.478 10 10 10s10-4.478 10-10v-7.475c0-15.502-10.316-28.643-24.451-32.933v-36.713h19.384l35.887 56.349c1.836 2.883 5.017 4.628 8.435 4.628s6.599-1.745 8.435-4.628l35.888-56.349h17.065v38.448c-15.151 4.347-26.27 18.314-26.27 34.827 0 19.976 16.271 36.228 36.27 36.228s36.27-16.252 36.27-36.228c0-16.512-11.118-30.48-26.27-34.827v-38.448h18.431c13.369 0 24.245 10.823 24.245 24.128v122.811h-78.856c-5.522 0-10 4.478-10 10s4.478 10 10 10h88.856c5.522 0 10-4.478 10-10v-132.811c0-24.332-19.849-44.128-44.245-44.128h-63.174v-25.09c7.946-1.435 20.214-4.146 32.593-8.822 37.627-14.213 45.525-34.945 45.525-49.836v-22.806c9.458-.61 18.363-4.909 24.721-12.005 4.4-4.911 7.327-10.904 8.56-17.282 19.572 18.342 45.87 29.587 74.745 29.587 60.322 0 109.397-49.078 109.397-109.403 0-60.326-49.075-109.404-109.397-109.404zm-135.131 418.336c0 8.948-7.299 16.228-16.27 16.228s-16.27-7.279-16.27-16.228 7.299-16.228 16.27-16.228 16.27 7.28 16.27 16.228zm-152.547-398.336h34.282c21.197 0 56.518 17.309 68.336 23.976 2.396 1.354 5.26 1.654 7.892.842 9.954-3.08 39.273-8.507 55.207 3.237 8.43 6.215 12.527 16.604 12.527 31.76 0 6.396.035 66.378.035 66.378-.008 0-.016 0-.024-.001-4.965-19.359-22.581-33.711-43.49-33.711h-31.062c-15.39 0-30.394-5.401-42.247-15.211l-5.147-4.259c-3.495-2.892-8.496-3.068-12.187-.433l-10.593 7.563c-11.304 8.072-24.622 12.339-38.514 12.339-20.909 0-38.525 14.352-43.49 33.711-.009 0-.017 0-.025.001v-77.719c0-26.728 21.757-48.473 48.5-48.473zm64.89 357.423-20.61-32.361h41.222zm124.588-184.267c-3.09 3.449-7.521 5.427-12.159 5.427-1.626 0-3.229-.236-4.765-.702-3.032-.917-6.316-.347-8.859 1.539s-4.042 4.865-4.042 8.031v33.862c0 31.265-68.567 40.074-69.253 40.153-5.051.577-8.865 4.852-8.865 9.936v33.659h-33.288v-33.659c0-5.084-3.814-9.358-8.865-9.936-17.966-2.053-69.253-13.835-69.253-40.153v-33.862c0-3.166-1.499-6.146-4.042-8.031-2.542-1.886-5.825-2.456-8.859-1.539-1.536.466-3.139.702-4.765.702-4.637 0-9.068-1.978-12.158-5.426-3.107-3.467-4.535-7.957-4.021-12.643.818-7.45 7.105-13.582 14.624-14.264 2.166-.195 4.292.016 6.316.631 3.029.918 6.317.349 8.86-1.537 2.544-1.886 4.044-4.865 4.044-8.032 0-13.692 11.165-24.832 24.888-24.832 18.084 0 35.421-5.554 50.137-16.063l4.338-3.098c15.307 12.363 34.517 19.16 54.213 19.16h31.062c13.723 0 24.888 11.14 24.888 24.832 0 3.166 1.5 6.146 4.043 8.032s5.826 2.457 8.86 1.537c2.025-.614 4.151-.827 6.313-.632 7.519.681 13.807 6.812 14.628 14.261.515 4.688-.913 9.179-4.02 12.647zm98.2 5.652c-49.295 0-89.398-40.106-89.398-89.403 0-49.298 40.104-89.404 89.398-89.404s89.397 40.106 89.397 89.404c0 49.296-40.103 89.403-89.397 89.403z"/><path d="m437.916 80.464h-21.93v-21.931c0-5.522-4.478-10-10-10h-37.877c-5.522 0-10 4.478-10 10v21.931h-21.626c-5.522 0-10 4.478-10 10v37.88c0 5.522 4.478 10 10 10h21.626v21.932c0 5.522 4.478 10 10 10h37.877c5.522 0 10-4.478 10-10v-21.932h21.93c5.522 0 10-4.478 10-10v-37.88c0-5.523-4.478-10-10-10zm-10 37.88h-21.93c-5.522 0-10 4.478-10 10v21.932h-17.877v-21.932c0-5.522-4.478-10-10-10h-21.626v-17.88h21.626c5.522 0 10-4.478 10-10v-21.931h17.877v21.931c0 5.522 4.478 10 10 10h21.93z"/><g><path d="m164.438 512c-4.114 0-7.892-2.624-9.341-6.468-1.483-3.935-.301-8.534 2.953-11.221 3.103-2.562 7.553-3.01 11.102-1.122 3.772 2.007 5.874 6.324 5.133 10.533-.833 4.731-5.037 8.278-9.847 8.278z"/></g><path d="m123.559 170.976c-5.522 0-10 4.478-10 10v10.385c0 5.522 4.478 10 10 10s10-4.478 10-10v-10.385c0-5.523-4.478-10-10-10z"/><path d="m204.961 170.976c-5.522 0-10 4.478-10 10v10.385c0 5.522 4.478 10 10 10s10-4.478 10-10v-10.385c0-5.523-4.478-10-10-10z"/><path d="m174.244 228.064c-5.506 5.488-14.463 5.488-19.969 0-3.91-3.9-10.243-3.891-14.142.022-3.899 3.911-3.89 10.242.022 14.142 6.646 6.625 15.374 9.938 24.104 9.938s17.458-3.313 24.104-9.938c3.912-3.899 3.922-10.23.022-14.142-3.898-3.911-10.231-3.92-14.141-.022z"/></g></g></g></g></g></g></svg>